<svg width="21" height="20" viewBox="0 0 21 20" fill="none" xmlns="http://www.w3.org/2000/svg">
<path d="M10.1666 18.3333C10.6827 18.3339 11.1862 18.1738 11.607 17.8751C12.0279 17.5764 12.3452 17.154 12.515 16.6666H7.81829C7.98801 17.154 8.30536 17.5764 8.72622 17.8751C9.14708 18.1738 9.65054 18.3339 10.1666 18.3333ZM16 12.155V8.33329C16 5.65246 14.1791 3.39413 11.7125 2.71496C11.4683 2.09996 10.8716 1.66663 10.1666 1.66663C9.46163 1.66663 8.86496 2.09996 8.62079 2.71496C6.15413 3.39496 4.33329 5.65246 4.33329 8.33329V12.155L2.91079 13.5775C2.83326 13.6547 2.77177 13.7465 2.72986 13.8477C2.68796 13.9488 2.66647 14.0572 2.66663 14.1666V15C2.66663 15.221 2.75442 15.4329 2.9107 15.5892C3.06698 15.7455 3.27895 15.8333 3.49996 15.8333H16.8333C17.0543 15.8333 17.2663 15.7455 17.4226 15.5892C17.5788 15.4329 17.6666 15.221 17.6666 15V14.1666C17.6668 14.0572 17.6453 13.9488 17.6034 13.8477C17.5615 13.7465 17.5 13.6547 17.4225 13.5775L16 12.155Z" fill="#959393"/>
</svg>
