<svg width="18" height="17" viewBox="0 0 18 17" fill="none" xmlns="http://www.w3.org/2000/svg">
<path d="M2.58333 8.10413C2 8.10413 1.50694 7.90274 1.10417 7.49996C0.701389 7.09718 0.5 6.60413 0.5 6.02079C0.5 5.43746 0.701389 4.9444 1.10417 4.54163C1.50694 4.13885 2 3.93746 2.58333 3.93746C3.16667 3.93746 3.65972 4.13885 4.0625 4.54163C4.46528 4.9444 4.66667 5.43746 4.66667 6.02079C4.66667 6.60413 4.46528 7.09718 4.0625 7.49996C3.65972 7.90274 3.16667 8.10413 2.58333 8.10413ZM6.33333 4.77079C5.75 4.77079 5.25694 4.5694 4.85417 4.16663C4.45139 3.76385 4.25 3.27079 4.25 2.68746C4.25 2.10413 4.45139 1.61107 4.85417 1.20829C5.25694 0.805515 5.75 0.604126 6.33333 0.604126C6.91667 0.604126 7.40972 0.805515 7.8125 1.20829C8.21528 1.61107 8.41667 2.10413 8.41667 2.68746C8.41667 3.27079 8.21528 3.76385 7.8125 4.16663C7.40972 4.5694 6.91667 4.77079 6.33333 4.77079ZM11.3333 4.77079C10.75 4.77079 10.2569 4.5694 9.85417 4.16663C9.45139 3.76385 9.25 3.27079 9.25 2.68746C9.25 2.10413 9.45139 1.61107 9.85417 1.20829C10.2569 0.805515 10.75 0.604126 11.3333 0.604126C11.9167 0.604126 12.4097 0.805515 12.8125 1.20829C13.2153 1.61107 13.4167 2.10413 13.4167 2.68746C13.4167 3.27079 13.2153 3.76385 12.8125 4.16663C12.4097 4.5694 11.9167 4.77079 11.3333 4.77079ZM15.0833 8.10413C14.5 8.10413 14.0069 7.90274 13.6042 7.49996C13.2014 7.09718 13 6.60413 13 6.02079C13 5.43746 13.2014 4.9444 13.6042 4.54163C14.0069 4.13885 14.5 3.93746 15.0833 3.93746C15.6667 3.93746 16.1597 4.13885 16.5625 4.54163C16.9653 4.9444 17.1667 5.43746 17.1667 6.02079C17.1667 6.60413 16.9653 7.09718 16.5625 7.49996C16.1597 7.90274 15.6667 8.10413 15.0833 8.10413ZM4.375 16.4375C3.75 16.4375 3.22556 16.198 2.80167 15.7191C2.37778 15.2402 2.16611 14.6741 2.16667 14.0208C2.16667 13.2986 2.41333 12.6666 2.90667 12.125C3.4 11.5833 3.88944 11.0486 4.375 10.5208C4.77778 10.0902 5.125 9.62163 5.41667 9.11496C5.70833 8.60829 6.05556 8.13246 6.45833 7.68746C6.76389 7.32635 7.11806 7.02774 7.52083 6.79163C7.92361 6.55551 8.36111 6.43746 8.83333 6.43746C9.30556 6.43746 9.74306 6.54857 10.1458 6.77079C10.5486 6.99301 10.9028 7.28468 11.2083 7.64579C11.5972 8.09024 11.9411 8.5694 12.24 9.08329C12.5389 9.59718 12.8894 10.0763 13.2917 10.5208C13.7778 11.0486 14.2672 11.5833 14.76 12.125C15.2528 12.6666 15.4994 13.2986 15.5 14.0208C15.5 14.6736 15.2881 15.2397 14.8642 15.7191C14.4403 16.1986 13.9161 16.438 13.2917 16.4375C12.5417 16.4375 11.7986 16.375 11.0625 16.25C10.3264 16.125 9.58333 16.0625 8.83333 16.0625C8.08333 16.0625 7.34028 16.125 6.60417 16.25C5.86806 16.375 5.125 16.4375 4.375 16.4375Z" fill="#06754A"/>
</svg>
