<svg width="21" height="20" viewBox="0 0 21 20" fill="none" xmlns="http://www.w3.org/2000/svg">
<path d="M4.24996 10.25C3.66663 10.25 3.17357 10.0486 2.77079 9.64583C2.36801 9.24305 2.16663 8.75 2.16663 8.16667C2.16663 7.58333 2.36801 7.09028 2.77079 6.6875C3.17357 6.28472 3.66663 6.08333 4.24996 6.08333C4.83329 6.08333 5.32635 6.28472 5.72913 6.6875C6.1319 7.09028 6.33329 7.58333 6.33329 8.16667C6.33329 8.75 6.1319 9.24305 5.72913 9.64583C5.32635 10.0486 4.83329 10.25 4.24996 10.25ZM7.99996 6.91667C7.41663 6.91667 6.92357 6.71528 6.52079 6.3125C6.11801 5.90972 5.91663 5.41667 5.91663 4.83333C5.91663 4.25 6.11801 3.75694 6.52079 3.35417C6.92357 2.95139 7.41663 2.75 7.99996 2.75C8.58329 2.75 9.07635 2.95139 9.47913 3.35417C9.8819 3.75694 10.0833 4.25 10.0833 4.83333C10.0833 5.41667 9.8819 5.90972 9.47913 6.3125C9.07635 6.71528 8.58329 6.91667 7.99996 6.91667ZM13 6.91667C12.4166 6.91667 11.9236 6.71528 11.5208 6.3125C11.118 5.90972 10.9166 5.41667 10.9166 4.83333C10.9166 4.25 11.118 3.75694 11.5208 3.35417C11.9236 2.95139 12.4166 2.75 13 2.75C13.5833 2.75 14.0763 2.95139 14.4791 3.35417C14.8819 3.75694 15.0833 4.25 15.0833 4.83333C15.0833 5.41667 14.8819 5.90972 14.4791 6.3125C14.0763 6.71528 13.5833 6.91667 13 6.91667ZM16.75 10.25C16.1666 10.25 15.6736 10.0486 15.2708 9.64583C14.868 9.24305 14.6666 8.75 14.6666 8.16667C14.6666 7.58333 14.868 7.09028 15.2708 6.6875C15.6736 6.28472 16.1666 6.08333 16.75 6.08333C17.3333 6.08333 17.8263 6.28472 18.2291 6.6875C18.6319 7.09028 18.8333 7.58333 18.8333 8.16667C18.8333 8.75 18.6319 9.24305 18.2291 9.64583C17.8263 10.0486 17.3333 10.25 16.75 10.25ZM6.04163 18.5833C5.41663 18.5833 4.89218 18.3439 4.46829 17.865C4.0444 17.3861 3.83274 16.82 3.83329 16.1667C3.83329 15.4444 4.07996 14.8125 4.57329 14.2708C5.06663 13.7292 5.55607 13.1944 6.04163 12.6667C6.4444 12.2361 6.79163 11.7675 7.08329 11.2608C7.37496 10.7542 7.72218 10.2783 8.12496 9.83333C8.43051 9.47222 8.78468 9.17361 9.18746 8.9375C9.59024 8.70139 10.0277 8.58333 10.5 8.58333C10.9722 8.58333 11.4097 8.69444 11.8125 8.91667C12.2152 9.13889 12.5694 9.43055 12.875 9.79167C13.2638 10.2361 13.6077 10.7153 13.9066 11.2292C14.2055 11.7431 14.5561 12.2222 14.9583 12.6667C15.4444 13.1944 15.9338 13.7292 16.4266 14.2708C16.9194 14.8125 17.1661 15.4444 17.1666 16.1667C17.1666 16.8194 16.9547 17.3856 16.5308 17.865C16.1069 18.3444 15.5827 18.5839 14.9583 18.5833C14.2083 18.5833 13.4652 18.5208 12.7291 18.3958C11.993 18.2708 11.25 18.2083 10.5 18.2083C9.74996 18.2083 9.0069 18.2708 8.27079 18.3958C7.53468 18.5208 6.79163 18.5833 6.04163 18.5833Z" fill="#959393"/>
<mask id="mask0_4102_1077" style="mask-type:alpha" maskUnits="userSpaceOnUse" x="8" y="10" width="5" height="6">
<path d="M10.8125 11.25C10.8125 11.0774 10.6725 10.9375 10.5 10.9375C10.3274 10.9375 10.1875 11.0774 10.1875 11.25V13.0208H8.41663C8.24404 13.0208 8.10413 13.1607 8.10413 13.3333C8.10413 13.5059 8.24404 13.6458 8.41663 13.6458H10.1875V15.4167C10.1875 15.5893 10.3274 15.7292 10.5 15.7292C10.6725 15.7292 10.8125 15.5893 10.8125 15.4167V13.6458H12.5833C12.7559 13.6458 12.8958 13.5059 12.8958 13.3333C12.8958 13.1607 12.7559 13.0208 12.5833 13.0208H10.8125V11.25Z" fill="#006FFD"/>
</mask>
<g mask="url(#mask0_4102_1077)">
<rect x="7.99994" y="10.8334" width="5" height="5" fill="#D4D6DD"/>
</g>
</svg>
