<svg width="21" height="20" viewBox="0 0 21 20" fill="none" xmlns="http://www.w3.org/2000/svg">
<path fill-rule="evenodd" clip-rule="evenodd" d="M2.99994 3.75C2.99994 3.41848 3.13163 3.10054 3.36606 2.86612C3.60048 2.6317 3.91842 2.5 4.24994 2.5H7.99994C8.33146 2.5 8.6494 2.6317 8.88382 2.86612C9.11824 3.10054 9.24994 3.41848 9.24994 3.75V14.375C9.24994 15.2038 8.9207 15.9987 8.33465 16.5847C7.7486 17.1708 6.95374 17.5 6.12494 17.5C5.29614 17.5 4.50128 17.1708 3.91523 16.5847C3.32918 15.9987 2.99994 15.2038 2.99994 14.375V3.75ZM7.06244 14.375C7.06244 14.6236 6.96367 14.8621 6.78785 15.0379C6.61204 15.2137 6.37358 15.3125 6.12494 15.3125C5.8763 15.3125 5.63784 15.2137 5.46203 15.0379C5.28621 14.8621 5.18744 14.6236 5.18744 14.375C5.18744 14.1264 5.28621 13.8879 5.46203 13.7121C5.63784 13.5363 5.8763 13.4375 6.12494 13.4375C6.37358 13.4375 6.61204 13.5363 6.78785 13.7121C6.96367 13.8879 7.06244 14.1264 7.06244 14.375Z" fill="#959393"/>
<path d="M11.1249 13.7937L15.8474 9.07123C16.0818 8.83682 16.2134 8.51894 16.2134 8.18748C16.2134 7.85603 16.0818 7.53814 15.8474 7.30373L13.1949 4.65248C12.9605 4.41814 12.6427 4.2865 12.3112 4.2865C11.9797 4.2865 11.6619 4.41814 11.4274 4.65248L11.1249 4.95498V13.7937ZM10.0699 17.5H16.7499C17.0815 17.5 17.3994 17.3683 17.6338 17.1339C17.8683 16.8994 17.9999 16.5815 17.9999 16.25V12.5C17.9999 12.1685 17.8683 11.8505 17.6338 11.6161C17.3994 11.3817 17.0815 11.25 16.7499 11.25H16.3199L10.0699 17.5Z" fill="#959393"/>
</svg>
