<svg width="21" height="20" viewBox="0 0 21 20" fill="none" xmlns="http://www.w3.org/2000/svg">
<path d="M4.58333 10.1041C4 10.1041 3.50694 9.90274 3.10417 9.49996C2.70139 9.09718 2.5 8.60413 2.5 8.02079C2.5 7.43746 2.70139 6.9444 3.10417 6.54163C3.50694 6.13885 4 5.93746 4.58333 5.93746C5.16667 5.93746 5.65972 6.13885 6.0625 6.54163C6.46528 6.9444 6.66667 7.43746 6.66667 8.02079C6.66667 8.60413 6.46528 9.09718 6.0625 9.49996C5.65972 9.90274 5.16667 10.1041 4.58333 10.1041ZM8.33333 6.77079C7.75 6.77079 7.25694 6.5694 6.85417 6.16663C6.45139 5.76385 6.25 5.27079 6.25 4.68746C6.25 4.10413 6.45139 3.61107 6.85417 3.20829C7.25694 2.80551 7.75 2.60413 8.33333 2.60413C8.91667 2.60413 9.40972 2.80551 9.8125 3.20829C10.2153 3.61107 10.4167 4.10413 10.4167 4.68746C10.4167 5.27079 10.2153 5.76385 9.8125 6.16663C9.40972 6.5694 8.91667 6.77079 8.33333 6.77079ZM13.3333 6.77079C12.75 6.77079 12.2569 6.5694 11.8542 6.16663C11.4514 5.76385 11.25 5.27079 11.25 4.68746C11.25 4.10413 11.4514 3.61107 11.8542 3.20829C12.2569 2.80551 12.75 2.60413 13.3333 2.60413C13.9167 2.60413 14.4097 2.80551 14.8125 3.20829C15.2153 3.61107 15.4167 4.10413 15.4167 4.68746C15.4167 5.27079 15.2153 5.76385 14.8125 6.16663C14.4097 6.5694 13.9167 6.77079 13.3333 6.77079ZM17.0833 10.1041C16.5 10.1041 16.0069 9.90274 15.6042 9.49996C15.2014 9.09718 15 8.60413 15 8.02079C15 7.43746 15.2014 6.9444 15.6042 6.54163C16.0069 6.13885 16.5 5.93746 17.0833 5.93746C17.6667 5.93746 18.1597 6.13885 18.5625 6.54163C18.9653 6.9444 19.1667 7.43746 19.1667 8.02079C19.1667 8.60413 18.9653 9.09718 18.5625 9.49996C18.1597 9.90274 17.6667 10.1041 17.0833 10.1041ZM6.375 18.4375C5.75 18.4375 5.22556 18.198 4.80167 17.7191C4.37778 17.2402 4.16611 16.6741 4.16667 16.0208C4.16667 15.2986 4.41333 14.6666 4.90667 14.125C5.4 13.5833 5.88944 13.0486 6.375 12.5208C6.77778 12.0902 7.125 11.6216 7.41667 11.115C7.70833 10.6083 8.05556 10.1325 8.45833 9.68746C8.76389 9.32635 9.11806 9.02774 9.52083 8.79163C9.92361 8.55551 10.3611 8.43746 10.8333 8.43746C11.3056 8.43746 11.7431 8.54857 12.1458 8.77079C12.5486 8.99301 12.9028 9.28468 13.2083 9.64579C13.5972 10.0902 13.9411 10.5694 14.24 11.0833C14.5389 11.5972 14.8894 12.0763 15.2917 12.5208C15.7778 13.0486 16.2672 13.5833 16.76 14.125C17.2528 14.6666 17.4994 15.2986 17.5 16.0208C17.5 16.6736 17.2881 17.2397 16.8642 17.7191C16.4403 18.1986 15.9161 18.438 15.2917 18.4375C14.5417 18.4375 13.7986 18.375 13.0625 18.25C12.3264 18.125 11.5833 18.0625 10.8333 18.0625C10.0833 18.0625 9.34028 18.125 8.60417 18.25C7.86806 18.375 7.125 18.4375 6.375 18.4375Z" fill="#06754A"/>
</svg>
