<svg width="13" height="12" viewBox="0 0 13 12" fill="none" xmlns="http://www.w3.org/2000/svg">
<path d="M6.086 1C6.48379 1.00008 6.86526 1.15818 7.1465 1.4395L11.0015 5.2945C11.3212 5.61424 11.5008 6.04786 11.5008 6.5C11.5008 6.95214 11.3212 7.38576 11.0015 7.7055L8.2055 10.5015C7.88576 10.8212 7.45214 11.0008 7 11.0008C6.54786 11.0008 6.11424 10.8212 5.7945 10.5015L1.9395 6.6465C1.65818 6.36526 1.50008 5.98379 1.5 5.586V3C1.5 2.46957 1.71071 1.96086 2.08579 1.58579C2.46086 1.21071 2.96957 1 3.5 1H6.086ZM4.25 2.75C3.99771 2.74992 3.75472 2.8452 3.56973 3.01675C3.38474 3.18829 3.27142 3.42342 3.2525 3.675L3.25 3.75C3.25 3.94778 3.30865 4.14112 3.41853 4.30557C3.52841 4.47002 3.68459 4.59819 3.86732 4.67388C4.05004 4.74957 4.25111 4.76937 4.44509 4.73079C4.63907 4.6922 4.81725 4.59696 4.95711 4.45711C5.09696 4.31725 5.1922 4.13907 5.23079 3.94509C5.26937 3.75111 5.24957 3.55004 5.17388 3.36732C5.09819 3.18459 4.97002 3.02841 4.80557 2.91853C4.64112 2.80865 4.44778 2.75 4.25 2.75Z" fill="#06754A"/>
</svg>
