<svg width="16" height="16" viewBox="0 0 16 16" fill="none" xmlns="http://www.w3.org/2000/svg">
<path d="M3.58328 11.75H1.91661C1.66106 11.75 1.45828 11.675 1.30828 11.525C1.15828 11.375 1.08328 11.1723 1.08328 10.9167V3.83337H0.666611C0.548278 3.83337 0.449389 3.79337 0.369945 3.71337C0.2905 3.63337 0.2505 3.53421 0.249945 3.41587C0.249389 3.29754 0.289389 3.19865 0.369945 3.11921C0.4505 3.03976 0.549389 3.00004 0.666611 3.00004H3.58328V0.916707H2.74994C2.63161 0.916707 2.53272 0.876707 2.45328 0.796707C2.37383 0.716707 2.33383 0.617541 2.33328 0.499207C2.33272 0.380874 2.37272 0.281985 2.45328 0.202541C2.53383 0.123096 2.63272 0.083374 2.74994 0.083374H5.24994C5.36828 0.083374 5.46717 0.123374 5.54661 0.203374C5.62606 0.283374 5.66606 0.382541 5.66661 0.500874C5.66717 0.619207 5.62717 0.718096 5.54661 0.797541C5.46606 0.876985 5.36717 0.916707 5.24994 0.916707H4.41661V3.00004H7.33328C7.45161 3.00004 7.5505 3.04004 7.62994 3.12004C7.70939 3.20004 7.74939 3.29921 7.74994 3.41754C7.7505 3.53587 7.7105 3.63476 7.62994 3.71421C7.54939 3.79365 7.4505 3.83337 7.33328 3.83337H6.91661V10.9167C6.91661 11.1723 6.84161 11.375 6.69161 11.525C6.54161 11.675 6.33883 11.75 6.08328 11.75H4.41661V15.5C4.41661 15.6184 4.37661 15.7173 4.29661 15.7967C4.21661 15.8762 4.11744 15.9162 3.99911 15.9167C3.88078 15.9173 3.78189 15.8773 3.70244 15.7967C3.623 15.7162 3.58328 15.6173 3.58328 15.5V11.75ZM1.91661 10.9167H6.08328V8.99337H4.20828C4.10994 8.99337 4.02383 8.95643 3.94994 8.88254C3.87661 8.80921 3.83994 8.72337 3.83994 8.62504C3.83994 8.52671 3.87689 8.4406 3.95078 8.36671C4.02411 8.29337 4.10994 8.25671 4.20828 8.25671H6.08328V6.49337H4.20828C4.10994 6.49337 4.02383 6.45643 3.94994 6.38254C3.87661 6.30921 3.83994 6.22337 3.83994 6.12504C3.83994 6.02671 3.87689 5.9406 3.95078 5.86671C4.02411 5.79337 4.10994 5.75671 4.20828 5.75671H6.08328V3.83337H1.91661V10.9167ZM10.2499 15.9167C9.99439 15.9167 9.79161 15.8417 9.64161 15.6917C9.49161 15.5417 9.41661 15.3389 9.41661 15.0834V9.25004C9.41661 8.85171 9.50217 8.52226 9.67328 8.26171C9.84439 8.00115 10.0063 7.78421 10.1591 7.61087C10.3008 7.44865 10.4208 7.3056 10.5191 7.18171C10.6174 7.05837 10.6666 6.91449 10.6666 6.75004V5.91671H10.2499C10.1316 5.91671 10.0327 5.87671 9.95328 5.79671C9.87383 5.71671 9.83383 5.61754 9.83328 5.49921C9.83272 5.38087 9.87272 5.28199 9.95328 5.20254C10.0338 5.1231 10.1327 5.08337 10.2499 5.08337H14.4166C14.5349 5.08337 14.6338 5.12337 14.7133 5.20337C14.7927 5.28337 14.8327 5.38254 14.8333 5.50087C14.8338 5.61921 14.7938 5.7181 14.7133 5.79754C14.6327 5.87699 14.5338 5.91671 14.4166 5.91671H13.9999V6.75004C13.9999 6.91449 14.0508 7.06087 14.1524 7.18921C14.2541 7.31754 14.3774 7.46282 14.5224 7.62504C14.6752 7.79837 14.8347 8.01421 15.0008 8.27254C15.1669 8.53087 15.2499 8.85476 15.2499 9.24421V15.0834C15.2499 15.3389 15.1749 15.5417 15.0249 15.6917C14.8749 15.8417 14.6722 15.9167 14.4166 15.9167H10.2499ZM10.2499 9.92337H14.4166V9.25004C14.4166 8.97782 14.3541 8.74921 14.2291 8.56421C14.1041 8.37921 13.9547 8.19115 13.7808 8.00004C13.6352 7.84449 13.4963 7.6706 13.3641 7.47837C13.2324 7.28726 13.1666 7.04449 13.1666 6.75004V5.91671H11.4999V6.75004C11.4999 7.03782 11.4338 7.27754 11.3016 7.46921C11.1699 7.66087 11.033 7.83615 10.8908 7.99504C10.7169 8.18671 10.5666 8.3756 10.4399 8.56171C10.3133 8.74782 10.2499 8.97726 10.2499 9.25004V9.92337ZM10.2499 15.0834H14.4166V13.16H10.2499V15.0834Z" fill="#959393"/>
</svg>
